<?xml version="1.0" encoding="UTF-8"?>
<!DOCTYPE svg PUBLIC "-//W3C//DTD SVG 1.1//EN" "http://www.w3.org/Graphics/SVG/1.1/DTD/svg11.dtd">
<!-- Creator: CorelDRAW -->
<svg xmlns="http://www.w3.org/2000/svg" xml:space="preserve" width="210mm" height="297mm" version="1.1" style="shape-rendering:geometricPrecision; text-rendering:geometricPrecision; image-rendering:optimizeQuality; fill-rule:evenodd; clip-rule:evenodd"
viewBox="0 0 21000 29700"
 xmlns:xlink="http://www.w3.org/1999/xlink"
 xmlns:xodm="http://www.corel.com/coreldraw/odm/2003">
 <defs>
  <style type="text/css">
   <![CDATA[
    .str0 {stroke:#FEBB33;stroke-width:7.62;stroke-miterlimit:22.9256}
    .fil1 {fill:#FE9A2F}
    .fil2 {fill:#FEBB33}
    .fil0 {fill:#373435;fill-rule:nonzero}
    .fil3 {fill:#373435;fill-rule:nonzero}
   ]]>
  </style>
 </defs>
 <g id="Camada_x0020_1">
  <metadata id="CorelCorpID_0Corel-Layer"/>
  <g id="_2061946150864">
   <path class="fil0" d="M8146.95 18618.18c-57.23,0 -103.54,-12.05 -138.93,-36.14 -35.39,-24.1 -65.13,-62.5 -89.23,-115.21l-546.66 -1206.27c-24.1,-52.71 -31.63,-100.15 -22.59,-142.32 9.04,-42.16 30.12,-74.92 63.25,-98.26 33.13,-23.34 74.55,-35.01 124.24,-35.01 61.75,0 108.05,13.55 138.93,40.66 30.87,27.11 57.6,67.01 80.19,119.72l460.82 1066.22 -126.5 0 460.83 -1068.48c22.59,-52.71 49.69,-92.24 81.32,-118.59 31.62,-26.36 76.05,-39.53 133.28,-39.53 46.68,0 85.83,11.67 117.46,35.01 31.63,23.34 51.58,56.1 59.86,98.26 8.28,42.17 0.38,89.61 -23.72,142.32l-548.92 1206.27c-22.59,52.71 -51.2,91.11 -85.84,115.21 -34.64,24.09 -80.57,36.14 -137.79,36.14z"/>
   <path id="_1" class="fil0" d="M9554.26 18622.7c-135.54,0 -252.62,-23.72 -351.26,-71.16 -98.64,-47.44 -174.32,-114.83 -227.03,-202.17 -52.71,-87.35 -79.06,-190.51 -79.06,-309.48 0,-114.45 25.22,-214.97 75.67,-301.57 50.45,-86.59 119.73,-154.36 207.83,-203.3 88.09,-48.94 188.62,-73.42 301.56,-73.42 82.83,0 158.13,13.18 225.9,39.53 67.77,26.36 125.75,64.76 173.94,115.21 48.19,50.45 84.71,111.07 109.56,181.85 24.84,70.78 37.27,149.84 37.27,237.18 0,30.12 -8.28,52.34 -24.85,66.64 -16.57,14.31 -42.92,21.46 -79.06,21.46l-691.24 0 0 -189.75 501.49 0 -36.15 29.37c0,-55.72 -7.53,-100.9 -22.59,-135.54 -15.06,-34.64 -37.27,-60.99 -66.64,-79.06 -29.36,-18.07 -65.88,-27.11 -109.55,-27.11 -46.69,0 -86.97,10.92 -120.86,32.76 -33.88,21.83 -59.86,53.83 -77.93,96 -18.07,42.17 -27.11,94.88 -27.11,158.13l0 20.33c0,106.92 23.72,183.35 71.16,229.28 47.44,45.93 120.85,68.9 220.25,68.9 33.13,0 71.15,-4.14 114.07,-12.43 42.92,-8.28 83.96,-19.95 123.11,-35.01 39.16,-15.06 73.04,-17.7 101.66,-7.91 28.61,9.79 50.82,26.36 66.64,49.7 15.81,23.34 24.47,49.7 25.97,79.06 1.51,29.37 -5.27,57.98 -20.33,85.84 -15.06,27.86 -39.91,49.32 -74.54,64.38 -52.71,24.1 -108.81,42.17 -168.29,54.22 -59.49,12.04 -119.35,18.07 -179.59,18.07z"/>
   <path id="_2" class="fil0" d="M10405.88 18618.18c-63.25,0 -112.19,-17.32 -146.83,-51.96 -34.64,-34.63 -51.96,-85.08 -51.96,-151.34l0 -747.71c0,-64.76 16.94,-114.46 50.83,-149.09 33.88,-34.64 82.45,-51.96 145.7,-51.96 63.25,0 111.44,17.32 144.57,51.96 33.13,34.63 49.7,84.33 49.7,149.09l0 124.24 -24.85 -110.69c31.63,-66.26 78.69,-119.35 141.18,-159.25 62.5,-39.91 136.67,-59.87 222.51,-59.87 81.32,0 150.97,19.58 208.95,58.74 57.98,39.15 99.77,98.64 125.37,178.45l-31.62 0c34.64,-73.79 86.59,-131.77 155.87,-173.94 69.27,-42.16 146.07,-63.25 230.41,-63.25 87.34,0 158.88,16.95 214.6,50.83 55.72,33.88 97.51,86.59 125.37,158.13 27.86,71.53 41.79,161.51 41.79,269.94l0 474.38c0,66.26 -17.7,116.71 -53.09,151.34 -35.39,34.64 -85.46,51.96 -150.22,51.96 -63.25,0 -112.19,-17.32 -146.83,-51.96 -34.63,-34.63 -51.95,-85.08 -51.95,-151.34l0 -463.09c0,-64.75 -9.79,-111.44 -29.37,-140.05 -19.58,-28.61 -51.96,-42.92 -97.13,-42.92 -55.72,0 -98.27,19.58 -127.63,58.73 -29.37,39.16 -44.05,94.88 -44.05,167.16l0 420.17c0,66.26 -17.32,116.71 -51.96,151.34 -34.64,34.64 -84.33,51.96 -149.09,51.96 -64.76,0 -114.45,-17.32 -149.09,-51.96 -34.64,-34.63 -51.95,-85.08 -51.95,-151.34l0 -463.09c0,-64.75 -9.79,-111.44 -29.37,-140.05 -19.58,-28.61 -51.96,-42.92 -97.14,-42.92 -54.21,0 -96,19.58 -125.37,58.73 -29.36,39.16 -44.05,94.88 -44.05,167.16l0 420.17c0,135.53 -67.76,203.3 -203.3,203.3z"/>
   <path id="_3" class="fil0" d="M12475.06 18618.18c-66.26,0 -117.46,-18.45 -153.6,-55.34 -36.15,-36.9 -54.22,-88.48 -54.22,-154.74l0 -1213.05c0,-69.28 18.07,-121.61 54.22,-157 36.14,-35.39 87.34,-53.08 153.6,-53.08 67.77,0 119.35,17.69 154.74,53.08 35.39,35.39 53.09,87.72 53.09,157l0 492.45 4.52 0 548.92 -605.4c28.61,-30.12 59.11,-53.84 91.48,-71.16 32.38,-17.31 68.9,-25.97 109.56,-25.97 63.25,0 108.81,16.19 136.67,48.56 27.86,32.38 40.66,70.03 38.4,112.95 -2.26,42.92 -19.95,82.45 -53.08,118.6l-546.67 580.54 0 -169.42 573.77 648.32c39.16,43.67 58.74,88.47 58.74,134.41 0,45.93 -15.44,83.95 -46.31,114.07 -30.87,30.12 -76.43,45.18 -136.67,45.18 -51.2,0 -92.24,-10.16 -123.11,-30.5 -30.87,-20.33 -64.38,-50.82 -100.52,-91.48l-551.18 -616.69 -4.52 0 0 528.59c0,66.26 -17.32,117.84 -51.96,154.74 -34.64,36.89 -86.59,55.34 -155.87,55.34z"/>
   <g>
    <polygon class="fil1 str0" points="10488.54,13580.31 10856.24,12573.76 10693.29,11988.34 10361.35,11608.12 9804.21,11264.22 9116.78,11186.4 8468.26,11342.04 8053.2,11672.79 7813.25,12094.33 7553.84,12457.5 6759.63,12681.61 6519.67,12979.93 6714.23,13531.18 7103.35,13926.78 7732.42,14101.88 8247.59,14140.55 8578.34,14361.05 8701.56,14698.29 8630.22,15158.75 8620.91,15858.53 8796.05,16108.73 9183.86,15921.08 9589.72,15477.01 10040.78,14795.19 10302.22,14232.61 10380.35,13962.41 "/>
    <polygon class="fil2 str0" points="11249.63,11931.26 10923.45,12656.12 10570.08,13290.37 10406.99,13870.26 10197.44,14594.96 9791.07,15299.35 9330.51,15705.72 8883.52,16128.93 9279.01,16425.3 10022.53,16657.65 10758.3,16742.85 11308.19,16603.44 11741.91,16394.32 11920.04,16092.27 12012.99,15712.76 12020.73,15325.52 12206.61,15023.46 12601.6,14915.03 13074.04,14729.16 13368.35,14334.16 13453.55,13892.7 13306.39,13745.55 13095.42,13507.28 12874.56,12999.3 12657.07,12758.62 12605.18,12074.58 12115.57,12541.6 11882.07,12609.39 11656.09,12240.3 11377.39,11871.21 "/>
    <path class="fil3" d="M9029.45 11080.8c-235.24,43.31 -397.92,92.46 -544.22,165.02 -310.14,155.66 -586.35,441.23 -731.47,759.56 -95.97,208.33 -120.55,250.46 -177.89,304.3 -86.61,81.92 -155.66,107.67 -356.96,133.42 -368.66,49.15 -552.41,117.03 -662.42,245.77 -142.79,167.36 -133.43,464.63 24.57,781.8 71.39,141.61 134.59,230.56 246.95,342.92 166.19,166.19 371,283.22 636.67,361.63 170.87,51.5 287.91,69.06 534.85,81.93 299.61,15.21 389.73,42.13 491.55,142.78 79.59,79.59 110.02,156.83 114.7,296.1 4.68,101.83 -1.17,149.81 -42.14,356.96 -141.61,717.43 -90.11,942.14 283.23,1231.21 524.32,404.95 1281.54,613.27 1996.63,546.56 249.28,-22.24 540.7,-98.31 715.08,-187.26 242.27,-121.71 418.99,-297.27 491.55,-489.2 44.48,-119.38 56.18,-224.71 57.35,-520.81 0,-325.36 5.85,-352.28 81.93,-429.52 60.85,-60.86 107.67,-79.59 290.24,-115.87 544.22,-108.84 957.35,-496.23 1060.35,-998.31 40.96,-197.79 8.19,-291.42 -139.28,-401.43 -145.12,-107.68 -195.45,-176.72 -234.07,-320.68 -49.15,-182.57 -175.55,-395.58 -305.46,-513.78l-63.2 -58.52 10.53 -163.85c17.56,-298.44 -22.24,-519.64 -113.52,-622.63 -90.12,-100.65 -143.96,-71.39 -465.8,251.62 -122.89,124.06 -230.56,228.22 -241.1,231.73 -30.43,11.71 -63.2,-21.06 -127.57,-128.74 -183.74,-306.63 -359.3,-526.66 -459.95,-574.64 -234.22,-117.11 -396.36,297.14 -457.61,458.78 -15.21,39.79 -29.25,64.37 -32.77,55.01 -55,-170.88 -139.27,-362.81 -214.17,-482.19 -193.11,-308.97 -500.91,-548.9 -847.34,-658.91 -213,-67.88 -282.05,-78.41 -544.21,-81.92 -134.59,-2.34 -258.65,-1.17 -275.04,1.17l0.01 -0.01zm503.25 232.9c303.12,50.33 561.77,173.22 759.56,361.64 210.66,201.3 352.28,465.81 421.33,782.97 38.62,175.55 35.11,210.66 -33.94,347.6 -66.71,133.42 -186.09,338.23 -272.69,468.14 -141.62,211.83 -256.31,326.53 -400.27,396.75 -260.98,126.4 -489.21,73.73 -595.71,-136.93 -50.32,-101.82 -59.69,-167.36 -58.52,-423.67 1.17,-270.36 22.24,-438.89 92.46,-749.03 23.41,-99.48 44.48,-210.67 49.16,-246.95 5.85,-57.34 3.51,-67.88 -22.24,-98.31 -22.24,-25.74 -39.79,-33.94 -71.39,-33.94 -84.27,0 -101.82,40.96 -182.58,401.44 -79.58,355.78 -95.97,481.01 -94.79,750.2 0,154.48 5.85,230.55 22.23,310.14 52.67,255.14 209.5,436.54 433.04,502.08 80.75,23.41 232.9,24.58 323.01,1.17 73.74,-18.72 213.01,-83.09 320.68,-147.46 63.2,-37.45 63.2,-37.45 56.18,-9.36 -4.68,15.21 -18.73,93.63 -31.6,174.38 -56.18,342.92 -169.7,643.7 -359.3,950.33 -220.03,355.79 -609.76,765.42 -939.8,985.44l-99.48 66.71 -26.92 -32.77c-15.21,-17.56 -42.13,-62.03 -58.52,-97.14 -30.42,-62.03 -31.6,-70.22 -30.42,-269.18 0,-191.94 3.51,-220.03 47.98,-438.89 59.69,-293.76 67.88,-388.56 45.64,-526.66 -57.34,-345.25 -323.02,-557.09 -703.38,-560.6l-128.74 -1.17 117.04 -58.52c76.07,-37.45 138.1,-78.41 177.89,-117.04 53.84,-51.49 62.03,-65.54 62.03,-105.33 0,-59.69 -36.28,-99.48 -91.29,-99.48 -29.26,0 -69.05,19.9 -154.49,76.08 -135.76,90.11 -259.82,139.27 -400.26,155.65 -355.79,44.48 -646.04,-99.48 -854.36,-424.84 -56.18,-87.77 -94.8,-159.16 -107.68,-202.47 -8.19,-24.57 -5.85,-25.75 62.03,-25.75 251.63,0 461.12,-271.52 378.03,-489.2 -26.92,-71.39 -35.11,-64.37 97.14,-84.27 208.32,-31.6 346.42,-94.8 464.63,-213.01 71.39,-70.22 88.95,-98.3 174.38,-275.03 106.51,-220.03 162.68,-312.49 262.16,-428.35 300.78,-351.11 827.44,-520.81 1351.76,-435.37l0.01 0zm1982.58 928.1c40.97,62.02 118.21,190.77 170.88,286.74 52.66,94.79 99.48,174.38 104.16,176.72 3.51,2.34 77.24,10.53 162.68,17.55 338.23,29.26 591.03,133.43 779.45,320.68 99.48,99.48 152.15,194.28 211.84,376.85 26.92,84.27 58.52,169.71 69.05,190.77 28.09,55.01 93.63,124.06 188.43,200.13l80.75 64.37 -90.11 14.05c-50.33,8.19 -104.17,22.23 -119.38,32.77 -67.88,44.47 -44.47,126.4 59.69,207.15 97.14,74.91 106.5,139.28 35.11,262.16 -55.01,92.46 -147.47,146.29 -251.63,146.29 -67.88,-1.17 -125.22,-21.06 -211.83,-74.9 -37.45,-23.41 -76.08,-42.13 -85.44,-42.13 -45.64,0 -71.39,98.31 -42.13,155.65 37.45,72.57 154.49,146.3 236.41,149.81 51.49,1.17 -156.83,91.29 -271.52,115.87 -326.53,72.56 -407.29,104.16 -502.08,191.94 -31.6,30.43 -73.74,85.43 -93.63,122.89 -63.2,117.03 -71.39,182.57 -69.05,516.12 1.17,276.21 0,304.29 -23.41,371.01 -86.61,255.14 -339.41,430.69 -752.54,521.98 -548.9,121.71 -1208.98,33.94 -1739.15,-232.91 -148.64,-73.73 -344.09,-191.94 -340.57,-204.81 1.17,-4.68 57.34,-49.15 125.22,-98.31 450.59,-334.72 836.81,-775.94 1056.83,-1208.97 155.66,-304.29 211.84,-483.36 258.65,-823.94 55.01,-387.38 124.06,-580.49 319.51,-889.47 100.65,-159.16 181.41,-324.18 331.21,-676.46 105.33,-249.29 160.34,-360.47 197.79,-402.61 17.55,-19.89 21.06,-18.72 73.73,38.63 30.43,33.94 88.95,111.18 131.08,174.38l0 0zm1067.37 69.05c8.19,64.37 0,339.4 -10.54,349.94 -2.34,2.34 -40.96,-11.71 -85.43,-31.6 -104.16,-47.99 -200.13,-80.76 -208.32,-72.57 -3.51,4.69 -7.03,2.35 -7.03,-4.68 0,-14.04 278.55,-307.8 292.59,-307.8 5.85,0 14.04,30.43 18.72,66.71l0.01 0z"/>
    <path class="fil3" d="M8314.36 12282.76c-63.2,40.96 -94.8,114.69 -90.12,209.49 3.51,66.71 9.36,85.44 39.79,122.89 46.82,58.52 104.16,87.78 159.17,81.92 113.53,-14.04 189.6,-145.12 160.34,-275.03 -30.43,-139.28 -165.02,-209.49 -269.18,-139.28l0 0.01z"/>
    <path class="fil3" d="M12253.78 13385.23c-87.78,44.48 -126.4,187.26 -77.25,285.57 91.29,177.9 320.68,84.27 303.12,-122.89 -5.85,-71.39 -30.42,-112.35 -91.28,-154.48 -44.48,-30.43 -85.44,-32.78 -134.59,-8.2z"/>
    <path class="fil3" d="M11724.78 13983.29c-128.74,21.06 -176.73,42.13 -186.09,79.58 -8.19,36.28 21.07,88.95 51.49,88.95 10.54,0 62.03,-8.19 113.53,-18.73 126.4,-25.75 366.32,-24.57 512.61,1.17 108.85,18.73 117.04,18.73 138.11,-1.17 26.92,-23.41 29.25,-78.41 4.68,-102.99 -53.84,-53.83 -429.52,-81.92 -634.34,-46.81l0.01 0z"/>
    <path class="fil3" d="M12024.39 14263c-160.34,26.92 -325.36,86.61 -373.35,134.59 -29.25,29.26 -30.42,72.56 -2.34,97.14 29.26,26.92 63.2,24.58 128.74,-8.19 108.84,-55.01 324.19,-100.65 477.51,-100.65 53.83,0 76.07,-4.68 90.11,-21.07 25.75,-28.09 24.58,-76.07 -1.17,-99.48 -26.91,-24.57 -183.74,-25.74 -319.5,-2.34z"/>
    <path class="fil3" d="M13056.64 11100.7c-66.71,38.62 -79.58,136.93 -26.92,195.45 28.09,32.77 43.31,37.45 154.49,53.84 461.12,66.71 847.34,359.3 1010.02,765.41 46.81,117.04 78.41,276.21 78.41,397.92 0,124.06 21.07,173.21 84.27,196.62 53.83,21.07 95.97,10.53 139.27,-32.77 32.77,-31.6 33.94,-37.45 33.94,-148.63 0,-222.37 -47.98,-418.99 -153.31,-623.81 -174.39,-340.57 -500.92,-620.28 -867.24,-742 -182.57,-60.86 -402.6,-91.29 -452.93,-62.03l0 0z"/>
    <path class="fil3" d="M12964.18 11622.68c-30.42,30.42 -37.45,47.98 -37.45,87.77 0,85.44 60.86,135.76 165.02,135.76 148.64,0 316,81.93 455.27,221.2 143.96,145.12 201.31,275.03 218.86,491.55 5.85,84.27 11.7,104.16 38.62,133.42 25.75,29.26 40.96,35.11 85.44,36.28 46.81,1.17 59.69,-4.68 92.46,-37.45 38.62,-37.45 38.62,-38.62 37.45,-146.29 -7.03,-486.87 -423.67,-928.1 -900.01,-952.67l-118.2 -7.03 -37.46 37.46z"/>
    <path class="fil3" d="M13103.46 12131.78c-37.46,19.9 -58.52,62.03 -59.69,112.36 0,57.35 28.09,91.29 100.65,124.05 65.54,28.09 110.01,80.76 110.01,127.57 0,12.88 5.85,43.31 12.88,67.88 19.89,72.57 110.01,112.36 177.89,77.25 50.32,-25.75 66.71,-58.52 66.71,-139.28 0,-223.54 -255.14,-455.27 -408.45,-369.83l0 0z"/>
   </g>
  </g>
 </g>
</svg>
